<?xml version="1.0" standalone="no"?>
<!DOCTYPE svg PUBLIC "-//W3C//DTD SVG 20010904//EN"
 "http://www.w3.org/TR/2001/REC-SVG-20010904/DTD/svg10.dtd">
<svg version="1.0" xmlns="http://www.w3.org/2000/svg"
 width="96.000000pt" height="96.000000pt" viewBox="0 0 96.000000 96.000000"
 preserveAspectRatio="xMidYMid meet">
<metadata>
Created by potrace 1.14, written by Peter Selinger 2001-2017
</metadata>
<g transform="translate(0.000000,96.000000) scale(0.100000,-0.100000)"
fill="#000000" stroke="none">
<path d="M697 903 c-1 -1 -127 -3 -279 -5 -284 -3 -298 -5 -304 -44 -3 -17 51
-45 72 -37 7 2 37 -38 71 -94 33 -54 84 -135 113 -180 l52 -82 -40 -63 c-23
-35 -64 -101 -93 -148 -28 -47 -57 -88 -63 -92 -6 -4 -27 -8 -47 -8 -34 0 -79
-26 -79 -47 0 -13 58 -45 69 -38 5 3 12 1 16 -5 4 -6 11 -7 17 -4 15 9 518 11
518 2 0 -4 13 -3 29 2 17 4 31 5 33 1 2 -4 18 -2 36 6 23 9 32 20 32 36 0 34
-19 47 -66 47 l-42 0 -97 137 c-54 76 -102 148 -108 160 -8 19 1 38 65 136 42
62 90 139 108 170 28 50 36 57 63 57 18 0 42 3 54 6 41 11 41 67 0 81 -20 6
-125 12 -130 6z"/>
</g>
</svg>
